<svg width="41" height="41" viewBox="0 0 41 41" fill="none" xmlns="http://www.w3.org/2000/svg">
<path d="M28.84 16.66C29.04 17.15 29.14 17.69 29.14 18.31C29.14 19.08 28.99 19.76 28.68 20.33C28.37 20.9 27.96 21.34 27.44 21.64C26.93 21.95 26.35 22.1 25.72 22.1C25.09 22.1 24.52 21.95 24 21.64C23.47 21.34 23.06 20.9 22.75 20.33C22.44 19.76 22.29 19.09 22.29 18.33C22.29 18 22.32 17.68 22.38 17.39C22.53 17.35 22.66 17.29 22.82 17.25C22.99 17.21 23.13 17.2 23.3 17.2C23.42 17.2 23.52 17.22 23.62 17.27C23.73 17.31 23.84 17.35 23.94 17.41C24.09 17.5 24.24 17.6 24.4 17.69C24.65 17.81 24.94 17.85 25.22 17.86C25.46 17.86 25.69 17.85 25.92 17.79C26.13 17.75 26.29 17.64 26.47 17.53C26.68 17.41 26.83 17.23 26.99 17.05C27.06 16.98 27.14 16.93 27.21 16.86C27.26 16.81 27.29 16.78 27.36 16.76C27.43 16.72 27.51 16.68 27.59 16.66C27.68 16.64 27.78 16.64 27.87 16.63C28.04 16.6 28.21 16.6 28.38 16.6C28.52 16.6 28.64 16.6 28.78 16.65C28.8 16.66 28.82 16.66 28.84 16.66Z" fill="black"/>
<path d="M17.71 16.66C17.71 16.66 17.67 16.66 17.65 16.65C17.51 16.6 17.39 16.6 17.25 16.6C17.08 16.6 16.91 16.6 16.74 16.63C16.65 16.64 16.55 16.64 16.46 16.66C16.38 16.68 16.3 16.72 16.22 16.76C16.16 16.78 16.13 16.81 16.08 16.86C16.01 16.93 15.93 16.98 15.86 17.05C15.69 17.23 15.54 17.41 15.33 17.53C15.15 17.64 15 17.75 14.79 17.79C14.55 17.85 14.33 17.86 14.09 17.86C13.81 17.85 13.52 17.81 13.27 17.69C13.11 17.6 12.96 17.5 12.8 17.41C12.71 17.35 12.59 17.31 12.49 17.27C12.39 17.22 12.28 17.2 12.17 17.2C12 17.2 11.85 17.21 11.68 17.25C11.53 17.29 11.4 17.35 11.25 17.39C11.19 17.68 11.16 17.98 11.16 18.31C11.16 19.08 11.32 19.76 11.63 20.33C11.93 20.9 12.35 21.34 12.86 21.64C13.38 21.95 13.96 22.1 14.58 22.1C15.2 22.1 15.79 21.95 16.31 21.64C16.84 21.34 17.25 20.9 17.56 20.33C17.87 19.76 18.02 19.09 18.02 18.33C18.02 17.7 17.92 17.15 17.71 16.66ZM17.71 16.66C17.71 16.66 17.67 16.66 17.65 16.65C17.51 16.6 17.39 16.6 17.25 16.6C17.08 16.6 16.91 16.6 16.74 16.63C16.65 16.64 16.55 16.64 16.46 16.66C16.38 16.68 16.3 16.72 16.22 16.76C16.16 16.78 16.13 16.81 16.08 16.86C16.01 16.93 15.93 16.98 15.86 17.05C15.69 17.23 15.54 17.41 15.33 17.53C15.15 17.64 15 17.75 14.79 17.79C14.55 17.85 14.33 17.86 14.09 17.86C13.81 17.85 13.52 17.81 13.27 17.69C13.11 17.6 12.96 17.5 12.8 17.41C12.71 17.35 12.59 17.31 12.49 17.27C12.39 17.22 12.28 17.2 12.17 17.2C12 17.2 11.85 17.21 11.68 17.25C11.53 17.29 11.4 17.35 11.25 17.39C11.19 17.68 11.16 17.98 11.16 18.31C11.16 19.08 11.32 19.76 11.63 20.33C11.93 20.9 12.35 21.34 12.86 21.64C13.38 21.95 13.96 22.1 14.58 22.1C15.2 22.1 15.79 21.95 16.31 21.64C16.84 21.34 17.25 20.9 17.56 20.33C17.87 19.76 18.02 19.09 18.02 18.33C18.02 17.7 17.92 17.15 17.71 16.66ZM36.11 0H4.19L0 32.5C0 36.81 3.5 40.3 7.8 40.3H32.51C36.81 40.3 40.3 36.81 40.3 32.5L36.11 0ZM10.07 21.04C9.65 20.24 9.45 19.33 9.45 18.31C9.45 17.29 9.65 16.36 10.07 15.58C10.49 14.8 11.07 14.19 11.8 13.76C12.53 13.33 13.35 13.11 14.25 13.11C15.15 13.11 15.91 13.3 16.56 13.69C17.21 14.07 17.7 14.55 18.02 15.13V13.28H19.72V23.41H18.02V21.52C17.69 22.12 17.19 22.6 16.53 22.99C15.87 23.38 15.11 23.58 14.23 23.58C13.35 23.58 12.52 23.35 11.79 22.91C11.07 22.47 10.49 21.84 10.07 21.04ZM20.82 31.65C20.58 31.67 20.34 31.68 20.1 31.68C15.24 31.68 12.05 28.5 11.44 27.84L12.7 26.68C13.25 27.27 16.22 30.23 20.71 29.94C24.52 29.7 26.94 27.25 27.59 26.51L28.88 27.64C27.9 28.75 25.16 31.37 20.82 31.65ZM30.23 21.04C29.82 21.84 29.24 22.47 28.52 22.91C27.79 23.35 26.98 23.58 26.08 23.58C25.18 23.58 24.43 23.38 23.77 22.99C23.12 22.6 22.62 22.12 22.29 21.52V23.41H20.59V9.14H22.29V15.13C22.61 14.55 23.09 14.07 23.75 13.69C24.4 13.3 25.17 13.11 26.06 13.11C26.95 13.11 27.77 13.33 28.51 13.76C29.24 14.19 29.82 14.8 30.23 15.58C30.65 16.36 30.86 17.27 30.86 18.31C30.86 19.35 30.65 20.24 30.23 21.04ZM12.86 21.64C13.38 21.95 13.96 22.1 14.58 22.1C15.2 22.1 15.79 21.95 16.31 21.64C16.84 21.34 17.25 20.9 17.56 20.33C17.87 19.76 18.02 19.09 18.02 18.33C18.02 17.7 17.92 17.15 17.71 16.66C17.69 16.66 17.67 16.66 17.65 16.65C17.51 16.6 17.39 16.6 17.25 16.6C17.08 16.6 16.91 16.6 16.74 16.63C16.65 16.64 16.55 16.64 16.46 16.66C16.38 16.68 16.3 16.72 16.22 16.76C16.16 16.78 16.13 16.81 16.08 16.86C16.01 16.93 15.93 16.98 15.86 17.05C15.69 17.23 15.54 17.41 15.33 17.53C15.15 17.64 15 17.75 14.79 17.79C14.55 17.85 14.33 17.86 14.09 17.86C13.81 17.85 13.52 17.81 13.27 17.69C13.11 17.6 12.96 17.5 12.8 17.41C12.71 17.35 12.59 17.31 12.49 17.27C12.39 17.22 12.28 17.2 12.17 17.2C12 17.2 11.85 17.21 11.68 17.25C11.53 17.29 11.4 17.35 11.25 17.39C11.19 17.68 11.16 17.98 11.16 18.31C11.16 19.08 11.32 19.76 11.63 20.33C11.93 20.9 12.35 21.34 12.86 21.64Z" fill="black"/>
<path d="M30.23 15.58C29.82 14.8 29.24 14.19 28.51 13.76C27.77 13.33 26.96 13.11 26.06 13.11C25.16 13.11 24.4 13.3 23.75 13.69C23.09 14.07 22.61 14.55 22.29 15.13V9.14H20.59V23.41H22.29V21.52C22.62 22.12 23.12 22.6 23.77 22.99C24.43 23.38 25.2 23.58 26.08 23.58C26.96 23.58 27.79 23.35 28.52 22.91C29.24 22.47 29.82 21.84 30.23 21.04C30.65 20.24 30.86 19.33 30.86 18.31C30.86 17.29 30.65 16.36 30.23 15.58ZM28.68 20.33C28.37 20.9 27.96 21.34 27.44 21.64C26.93 21.95 26.35 22.1 25.72 22.1C25.09 22.1 24.52 21.95 24 21.64C23.47 21.34 23.06 20.9 22.75 20.33C22.44 19.76 22.29 19.09 22.29 18.33C22.29 18 22.32 17.68 22.38 17.39C22.53 17.35 22.66 17.29 22.82 17.25C22.99 17.21 23.13 17.2 23.3 17.2C23.42 17.2 23.52 17.22 23.62 17.27C23.73 17.31 23.84 17.35 23.94 17.41C24.09 17.5 24.24 17.6 24.4 17.69C24.65 17.81 24.94 17.85 25.22 17.86C25.46 17.86 25.69 17.85 25.92 17.79C26.13 17.75 26.29 17.64 26.47 17.53C26.68 17.41 26.83 17.23 26.99 17.05C27.06 16.98 27.14 16.93 27.21 16.86C27.26 16.81 27.29 16.78 27.36 16.76C27.43 16.72 27.51 16.68 27.59 16.66C27.68 16.64 27.78 16.64 27.87 16.63C28.04 16.6 28.21 16.6 28.38 16.6C28.52 16.6 28.64 16.6 28.78 16.65C28.8 16.66 28.82 16.66 28.84 16.66C29.04 17.15 29.14 17.69 29.14 18.31C29.14 19.08 28.99 19.76 28.68 20.33Z" fill="#FF7528"/>
<path d="M28.88 27.64C27.9 28.75 25.16 31.37 20.82 31.65C20.58 31.67 20.34 31.68 20.1 31.68C15.24 31.68 12.05 28.5 11.44 27.84L12.7 26.68C13.25 27.27 16.22 30.23 20.71 29.94C24.52 29.7 26.94 27.25 27.59 26.51L28.88 27.64Z" fill="#FF7528"/>
<path d="M18.02 13.28V15.13C17.7 14.55 17.21 14.07 16.56 13.69C15.91 13.3 15.14 13.11 14.25 13.11C13.36 13.11 12.53 13.33 11.8 13.76C11.07 14.19 10.49 14.8 10.07 15.58C9.65 16.36 9.45 17.27 9.45 18.31C9.45 19.35 9.65 20.24 10.07 21.04C10.49 21.84 11.07 22.47 11.79 22.91C12.52 23.35 13.33 23.58 14.23 23.58C15.13 23.58 15.87 23.38 16.53 22.99C17.19 22.6 17.69 22.12 18.02 21.52V23.41H19.72V13.28H18.02ZM17.56 20.33C17.25 20.9 16.84 21.34 16.31 21.64C15.79 21.95 15.21 22.1 14.58 22.1C13.95 22.1 13.38 21.95 12.86 21.64C12.35 21.34 11.93 20.9 11.63 20.33C11.32 19.76 11.16 19.08 11.16 18.31C11.16 17.98 11.19 17.68 11.25 17.39C11.4 17.35 11.53 17.29 11.68 17.25C11.85 17.21 12 17.2 12.17 17.2C12.28 17.2 12.39 17.22 12.49 17.27C12.59 17.31 12.71 17.35 12.8 17.41C12.96 17.5 13.11 17.6 13.27 17.69C13.52 17.81 13.81 17.85 14.09 17.86C14.33 17.86 14.55 17.85 14.79 17.79C15 17.75 15.15 17.64 15.33 17.53C15.54 17.41 15.69 17.23 15.86 17.05C15.93 16.98 16.01 16.93 16.08 16.86C16.13 16.81 16.16 16.78 16.22 16.76C16.3 16.72 16.38 16.68 16.46 16.66C16.55 16.64 16.65 16.64 16.74 16.63C16.91 16.6 17.08 16.6 17.25 16.6C17.39 16.6 17.51 16.6 17.65 16.65C17.67 16.66 17.69 16.66 17.71 16.66C17.92 17.15 18.02 17.7 18.02 18.33C18.02 19.09 17.87 19.76 17.56 20.33Z" fill="#FF7528"/>
</svg>
